Coordinates
version=1
nRows=14
nColumns=40
inDegrees=yes

Units are S.I. units (second, meters, Newtons, ...)
Angles are in degrees.

endheader
time	pelvis_tilt	pelvis_list	pelvis_rotation	pelvis_tx	pelvis_ty	pelvis_tz	hip_flexion_r	hip_adduction_r	hip_rotation_r	knee_angle_r	knee_angle_r_beta	ankle_angle_r	subtalar_angle_r	mtp_angle_r	hip_flexion_l	hip_adduction_l	hip_rotation_l	knee_angle_l	knee_angle_l_beta	ankle_angle_l	subtalar_angle_l	mtp_angle_l	lumbar_extension	lumbar_bending	lumbar_rotation	arm_flex_r	arm_add_r	arm_rot_r	elbow_flex_r	pro_sup_r	wrist_flex_r	wrist_dev_r	arm_flex_l	arm_add_l	arm_rot_l	elbow_flex_l	pro_sup_l	wrist_flex_l	wrist_dev_l
     44.25000000	     -2.77066841	     -5.26361898	      1.41068203	      1.07550333	      0.93187670	      0.39417199	     27.10709360	     -6.24406423	     -4.38447731	     65.14687832	     65.14687832	     -0.88537541	    -12.72076368	     -0.69700973	     16.52765229	     -5.97854428	     -7.41332477	     24.48266199	     24.48266199	     12.84931291	    -11.92695410	      0.90518861	    -10.17246645	      4.72286205	      2.05334043	      4.96252255	    -12.93388984	     -0.70935648	     31.44129032	     45.98371727	      0.00000000	      0.00000000	     19.22106965	    -17.55366408	     -6.83711265	     39.33789551	     45.62653796	      0.00000000	      0.00000000
     44.26392857	     -2.82836532	     -5.38947156	      0.98548987	      1.07473269	      0.93274841	      0.39368803	     27.95381092	     -6.08841412	     -4.46477125	     63.76517929	     63.76517929	     -0.85720860	    -12.84238478	     -0.59946522	     15.85701226	     -6.13618234	     -7.84331620	     23.95957763	     23.95957763	     13.05690145	    -11.69081377	      0.86913047	    -10.15094254	      4.88340345	      2.00252235	      3.26699538	    -12.78926972	     -0.73022197	     30.88731201	     45.99439579	      0.00000000	      0.00000000	     20.08333121	    -18.13476366	     -7.10769768	     40.38054188	     45.68514768	      0.00000000	      0.00000000
     44.27785714	     -2.85849311	     -5.49323602	      0.54068349	      1.07399336	      0.93358951	      0.39330336	     28.65641526	     -5.94003011	     -4.57920350	     62.15707846	     62.15707846	     -0.84496490	    -12.89145347	     -0.61382147	     15.15857626	     -6.28332256	     -8.33621868	     23.45135757	     23.45135757	     13.22242364	    -11.43085464	      0.71481056	    -10.22956727	      4.95988690	      2.16869734	      1.35710864	    -12.69527027	     -0.88844058	     30.58325573	     46.00216968	      0.00000000	      0.00000000	     20.76736188	    -18.63640386	     -7.55884418	     42.42166804	     45.77702364	      0.00000000	      0.00000000
     44.29178571	     -2.94948961	     -5.61636499	      0.10458450	      1.07321847	      0.93423904	      0.39292620	     29.30416869	     -5.76327619	     -4.75166222	     60.28832435	     60.28832435	     -0.89479312	    -12.83768193	     -0.73995474	     14.53270067	     -6.42727664	     -8.77577880	     22.92974072	     22.92974072	     13.29298411	    -11.25541975	      0.36276068	    -10.25266592	      5.10822328	      1.88797164	     -0.39015953	    -12.57342726	     -1.30181975	     30.90586543	     46.00285516	      0.00000000	      0.00000000	     20.69056329	    -19.39416173	     -8.29217760	     45.41006912	     45.92330376	      0.00000000	      0.00000000
     44.30571429	     -3.02971490	     -5.68823983	     -0.34878461	      1.07249398	      0.93489213	      0.39267332	     29.80264382	     -5.61804782	     -4.95314546	     58.10497526	     58.10497526	     -0.86367699	    -12.62988088	     -0.67457005	     13.85403056	     -6.49959289	     -9.21475729	     22.33196368	     22.33196368	     13.37125244	    -11.14450210	      0.20470869	    -10.25183711	      5.18033982	      1.85691886	     -1.95419376	    -12.49419461	     -1.37181155	     30.55002356	     46.01034269	      0.00000000	      0.00000000	     21.19363109	    -19.95682598	     -8.78829855	     47.21277010	     46.02698872	      0.00000000	      0.00000000
     44.31964286	     -3.19079268	     -5.77300998	     -0.78542975	      1.07170231	      0.93531242	      0.39255984	     30.24521121	     -5.43848191	     -5.21994057	     55.58355626	     55.58355626	     -0.74981592	    -12.22842226	     -0.45831966	     13.32610120	     -6.57459697	     -9.54234136	     21.82577790	     21.82577790	     13.53543957	    -11.11092512	      0.20666284	    -10.12012444	      5.29071025	      1.65910362	     -3.27579919	    -12.39036366	     -1.35666839	     30.12903336	     46.01574808	      0.00000000	      0.00000000	     21.86993382	    -20.67889425	     -9.05983191	     47.94039251	     46.07267097	      0.00000000	      0.00000000
     44.33357143	     -3.23119685	     -5.82348133	     -1.24855136	      1.07107786	      0.93592225	      0.39252736	     30.33585381	     -5.27303200	     -5.54853876	     52.58654755	     52.58654755	     -0.56632729	    -11.56381856	     -0.37612289	     12.56721668	     -6.61596486	    -10.01527710	     21.15747853	     21.15747853	     13.63563687	    -10.94564107	      0.16024835	    -10.15557626	      5.36941484	      1.82528959	     -4.61202933	    -12.41253778	     -1.37207712	     29.76893391	     46.02083915	      0.00000000	      0.00000000	     22.47185607	    -20.99727161	     -9.37583199	     49.34902309	     46.13019115	      0.00000000	      0.00000000
     44.34750000	     -3.40864277	     -5.83727128	     -1.73184256	      1.07034001	      0.93615873	      0.39276163	     30.44837803	     -5.08611532	     -5.88539537	     49.24089028	     49.24089028	     -0.35038582	    -10.65824793	     -0.38083982	     12.02715468	     -6.63892257	    -10.46506913	     20.60590178	     20.60590178	     13.74186583	    -10.83007052	      0.04268995	    -10.05200489	      5.36661341	      1.91503291	     -5.84487070	    -12.37436274	     -1.40798352	     29.52741003	     46.02302114	      0.00000000	      0.00000000	     22.98025073	    -21.46686609	     -9.72237652	     50.71450574	     46.18790388	      0.00000000	      0.00000000
     44.36142857	     -3.45382310	     -5.80970309	     -2.22762455	      1.06974516	      0.93647471	      0.39310393	     30.19209024	     -4.94005038	     -6.36422497	     45.44583825	     45.44583825	     -0.18238400	     -9.33320388	     -0.74682375	     11.29676163	     -6.61448071	    -11.00407676	     19.98347016	     19.98347016	     13.81627990	    -10.64651243	     -0.23063018	    -10.12791466	      5.30276815	      2.12293909	     -7.02044848	    -12.42039788	     -1.51257912	     29.48999794	     46.02209158	      0.00000000	      0.00000000	     23.26433530	    -21.73671028	    -10.17811239	     52.75608895	     46.26340374	      0.00000000	      0.00000000
     44.37535714	     -3.76438848	     -5.78365257	     -2.70071176	      1.06903019	      0.93628185	      0.39368652	     30.06013729	     -4.67954816	     -6.82723403	     41.30367052	     41.30367052	      0.02773983	     -7.94806503	     -0.83724315	     10.93400347	     -6.60798331	    -11.45024106	     19.47360188	     19.47360188	     13.89108375	    -10.58064364	     -0.42204626	     -9.84819061	      5.28955035	      2.13569320	     -7.96393666	    -12.33938970	     -1.57004272	     29.43402480	     46.02026374	      0.00000000	      0.00000000	     23.56486480	    -22.20435452	    -10.53426022	     54.04006831	     46.31820860	      0.00000000	      0.00000000
     44.38928571	     -3.81344734	     -5.64830415	     -3.17388651	      1.06864072	      0.93625646	      0.39431796	     29.25048166	     -4.52762095	     -7.51924304	     36.43018266	     36.43018266	     -1.06213044	     -6.47572439	     -4.81602214	     10.13657408	     -6.44943313	    -12.00392343	     18.67226145	     18.67226145	     13.38225843	    -10.64727578	     -2.03963214	     -9.97939023	      5.05725210	      1.55987301	     -8.68520857	    -12.41441801	     -1.79654519	     30.38005897	     45.99362410	      0.00000000	      0.00000000	     22.08672952	    -22.83553083	    -12.51065775	     58.85218392	     46.59643480	      0.00000000	      0.00000000
     44.40321429	     -4.10209880	     -5.61231414	     -3.58866702	      1.06811869	      0.93587084	      0.39519011	     28.65596006	     -4.12436546	     -8.12795686	     31.64890871	     31.64890871	     -0.89992431	     -4.54860286	     -4.28985261	      9.77405889	     -6.43795052	    -12.39582097	     18.21261106	     18.21261106	     13.52311807	    -10.57856205	     -2.14408971	     -9.67521516	      5.04009379	      1.66736797	     -9.35027571	    -12.35791976	     -1.74276444	     30.16840720	     45.99336953	      0.00000000	      0.00000000	     22.53264528	    -23.05372075	    -12.65924136	     59.48115769	     46.62642362	      0.00000000	      0.00000000
     44.41714286	     -4.09591827	     -5.48302171	     -3.95879133	      1.06800700	      0.93569525	      0.39606480	     27.54711545	     -3.85758900	     -9.05163841	     26.77978837	     26.77978837	     -0.72606583	     -1.90779132	     -3.68495650	      9.02349563	     -6.30249697	    -12.86761655	     17.67792049	     17.67792049	     13.68276568	    -10.32504035	     -2.44037397	     -9.68322601	      4.86901358	      1.86985080	    -10.01306114	    -12.44818433	     -1.74301707	     30.07425086	     45.99215209	      0.00000000	      0.00000000	     22.89143886	    -23.15665179	    -12.88577530	     60.52596014	     46.66995927	      0.00000000	      0.00000000
     44.43107143	     -4.13705479	     -5.29505328	     -4.29982100	      1.06797887	      0.93523385	      0.39711191	     26.47141524	     -3.58717609	    -10.00033483	     22.16734239	     22.16734239	     -0.61266210	      0.80504254	     -2.64327906	      8.32328802	     -6.11647660	    -13.37284794	     17.12333769	     17.12333769	     13.78697154	    -10.02444333	     -2.88227398	     -9.64557751	      4.65455208	      1.98878444	    -10.54462444	    -12.44194187	     -1.77949238	     30.16966446	     45.98637957	      0.00000000	      0.00000000	     23.07141125	    -23.26657251	    -13.16715122	     61.66824926	     46.71910388	      0.00000000	      0.00000000
